<svg width="36" height="68" viewBox="0 0 36 68" fill="none" xmlns="http://www.w3.org/2000/svg">
<path d="M35.25 67.0625H0.65625V61.4375C4.03125 58.5 8.875 53.0625 15.1875 45.125C21.5625 37.1875 25.4375 31.2812 26.8125 27.4062C27.8125 24.4688 28.3125 21.5625 28.3125 18.6875C28.3125 17.5625 28.125 16.1875 27.75 14.5625C27.375 12.9375 26.7812 11.4688 25.9688 10.1562C25.0938 8.78125 23.9688 7.625 22.5938 6.6875C21.2188 5.75 19.5625 5.28125 17.625 5.28125C13.8125 5.28125 11 6.53125 9.1875 9.03125C7.375 11.3437 6.46875 14.3437 6.46875 18.0312H0.5625C0.5625 14.0313 1.59375 10.4375 3.65625 7.25C4.84375 5.5 6.65625 4.03125 9.09375 2.84375C11.5312 1.59375 14.4375 0.96875 17.8125 0.96875C19.9375 0.96875 22.0312 1.375 24.0938 2.1875C26.2188 3 28 4.125 29.4375 5.5625C30.875 7.1875 32 9.0625 32.8125 11.1875C33.625 13.3125 34.0312 15.8125 34.0312 18.6875C34.0312 20.5 33.8438 22.3125 33.4688 24.125C33.1562 25.9375 32.75 27.4688 32.25 28.7188C30.0625 33.7812 26.8438 38.9375 22.5938 44.1875C18.3438 49.4375 13.0625 55.3125 6.75 61.8125H35.25V67.0625Z" fill="black"/>
</svg>
