<svg width="37" height="68" viewBox="0 0 37 68" fill="none" xmlns="http://www.w3.org/2000/svg">
<path d="M36.4375 48.3438C36.4375 50.4688 36.0938 52.7812 35.4062 55.2812C34.7188 57.7188 33.6562 59.8438 32.2188 61.6562C30.7812 63.4062 28.8438 64.8125 26.4062 65.875C23.9688 66.9375 21.25 67.4688 18.25 67.4688C15.25 67.4688 12.625 67.0938 10.375 66.3438C8.125 65.5312 6.3125 64.5625 4.9375 63.4375C3.5625 62.25 2.5 60.7188 1.75 58.8438C1 56.9688 0.5625 55.3438 0.4375 53.9688H7C7 54.5312 7.25 55.4688 7.75 56.7812C8.25 58.0312 9 59.1562 10 60.1562C10.8125 60.9688 11.875 61.6875 13.1875 62.3125C14.5 62.9375 16.0938 63.25 17.9688 63.25C21.6562 63.25 24.6875 61.8438 27.0625 59.0312C29.5 56.2188 30.7188 52.6562 30.7188 48.3438C30.7188 45.4688 30.125 43.0938 28.9375 41.2188C27.75 39.3438 26.3438 37.875 24.7188 36.8125C23.1562 35.75 21.4062 35.0312 19.4688 34.6562C17.5312 34.2812 16.0625 34.0938 15.0625 34.0938V29.9688C19.75 29.9688 23.375 28.7188 25.9375 26.2188C28.5 23.6562 29.7812 20.5 29.7812 16.75C29.7812 12.75 28.625 9.6875 26.3125 7.5625C24.0625 5.4375 21.5312 4.375 18.7188 4.375C15.3438 4.375 12.625 5.34375 10.5625 7.28125C8.5625 9.15625 7.5 11.1875 7.375 13.375H1.5625C1.5625 12.6875 1.84375 11.4375 2.40625 9.625C2.96875 7.75 3.90625 6.15625 5.21875 4.84375C6.53125 3.53125 8.28125 2.4375 10.4688 1.5625C12.7188 0.625 15.3125 0.15625 18.25 0.15625C20.375 0.15625 22.5938 0.53125 24.9062 1.28125C27.2812 1.96875 29.2188 3 30.7188 4.375C32.3438 5.875 33.5312 7.65625 34.2812 9.71875C35.0938 11.7188 35.5 14.0625 35.5 16.75C35.5 18.3125 35.2188 20 34.6562 21.8125C34.1562 23.5625 33.1562 25.25 31.6562 26.875C29.7188 29 27.1875 30.7188 24.0625 32.0312C27.75 33.3438 30.4688 34.9375 32.2188 36.8125C33.4062 38.0625 34.4062 39.5938 35.2188 41.4062C36.0312 43.2188 36.4375 45.5312 36.4375 48.3438Z" fill="black"/>
</svg>
